# xmcd
#
# Track frame offsets: 
#        150
#        22825
#        40418
#        62920
#        80672
#        102248
#        124023
#        145336
#        167280
#        185460
#        207795
#        234622
#
# Disc length: 3451 seconds
#
# Revision: 2
# Processed by: cddbd v1.5.2PL0 Copyright (c) Steve Scherf et al.
# Submitted via: ExactAudioCopy v0.99pb5
#
DISCID=9d0d790c
DTITLE=The Glendon Smith Quintet - Gourmet Jazz
DYEAR=2003
DGENRE=Jazz
TTITLE0=Blue Skies
TTITLE1=How High the Moon
TTITLE2=I Could Write a Book
TTITLE3=Doxy
TTITLE4=Watermelon Man
TTITLE5=I've Got the World on a String
TTITLE6=You'd Be so Nice to Come Home To
TTITLE7=Straight, No Chaser
TTITLE8=All the Things You Are
TTITLE9=Like Someone in Love
TTITLE10=Night and Day
TTITLE11=Green Dolphin Street
EXTD=YEAR: 2003
EXTT0=
EXTT1=
EXTT2=
EXTT3=
EXTT4=
EXTT5=
EXTT6=
EXTT7=
EXTT8=
EXTT9=
EXTT10=
EXTT11=
PLAYORDER=
